<?xml version="1.0" encoding="utf-8"?>
<!-- Generator: Adobe Illustrator 12.0.0, SVG Export Plug-In . SVG Version: 6.00 Build 51448)  -->
<!DOCTYPE svg PUBLIC "-//W3C//DTD SVG 1.1//EN" "http://www.w3.org/Graphics/SVG/1.1/DTD/svg11.dtd" [
	<!ENTITY ns_svg "http://www.w3.org/2000/svg">
	<!ENTITY ns_xlink "http://www.w3.org/1999/xlink">
]>
<svg  version="1.1" id="Layer_1" xmlns="&ns_svg;" xmlns:xlink="&ns_xlink;" width="292.489" height="67" viewBox="0 0 292.489 67"
	 overflow="visible" enable-background="new 0 0 292.489 67" xml:space="preserve">
<g>
	<g>
		<path fill="#008080" d="M106.483,53.095c-0.333-1.159-13.297-38.043-13.297-38.043s-0.028-0.465-0.804-0.483
			c-1.24-0.027-6.445-0.005-6.445-0.005s-0.413-0.109-0.643,0.488c-0.23,0.597-13.304,38.153-13.304,38.153
			s-0.385,0.718,0.259,0.764c0.643,0.046,5.905,0.006,5.905,0.006s0.414,0.132,0.615-0.413c0.321-0.873,2.74-8.651,2.74-8.651
			l15.377-0.034l2.906,8.646c0,0,0.033,0.479,0.632,0.471c0.701-0.012,5.894,0.005,5.894,0.005S106.759,54.055,106.483,53.095z
			 M83.369,39.108c0,0,5.377-16.13,5.583-16.906c0.207-0.775,0.552-0.5,0.672-0.068c0.121,0.431,5.463,16.974,5.463,16.974H83.369z"
			/>
	</g>
</g>
<path fill="#008080" d="M119.041,24.822c-0.964,0-6.411,0.551-8.513,2.377c0.007,2.511-0.017,26.297-0.017,26.297
	s-0.104,0.482,0.5,0.482c0.604,0,5.221,0,5.221,0s0.431,0.052,0.431-0.827s0-21.989,0-21.989s1.311-0.896,3.757-0.896
	c2.448,0,2.499,0.035,2.741,0.035c0.241,0,1.843,0.017,2.533,0.189c0.586,0.069,1.189,0.104,1.189-0.344c0-0.449,0-4.928,0-4.928
	s-2.171-0.431-4.377-0.396C120.299,24.856,120.006,24.822,119.041,24.822z"/>
<g>
	<g>
		<path fill="#008080" d="M154.137,14.931c0,0-0.022-0.459-0.85-0.437s-4.618,0-4.618,0s-0.644-0.092-0.644,0.321
			c0,0.414,0,11.099,0,11.099s-0.413-0.024-1.149-0.345c-0.734-0.321-2.566-0.827-4.917-0.85c-1.637-0.016-6.272,0.304-8.857,3.211
			c-2.415,2.715-3.17,4.897-3.166,7.243c0.007,2.459,0,8.249,0,8.249s0.145,2.895,0.833,4.389c0.689,1.493,0.942,2.551,3.722,4.503
			c2.78,1.953,5.469,2.39,8.11,2.321c2.383-0.063,7.276-0.237,11.534-2.229C154.114,49.441,154.137,14.931,154.137,14.931z
			 M144.901,49.027c0,0-1.77,0.017-3.218,0c-2.136-0.022-3.147-0.734-4.273-1.86c-1.18-1.181-1.148-3.332-1.148-3.332
			s0-5.33,0-8.364c0-3.744,2.803-5.077,6.387-5.077c3.447,0,5.307,1.241,5.307,1.241s0.069,15.601,0.069,16.451
			C147.222,49.048,144.901,49.027,144.901,49.027z"/>
	</g>
</g>
<path fill="#008080" d="M161.513,25.27c0,0-0.482,0.023-0.506,0.689c-0.022,0.667,0,16.912,0,16.912s0.197,4.418,1.379,6.134
	c1.677,2.436,2.459,3.631,4.757,4.503c1.803,0.686,4.365,1.058,6.227,1.058s4.208-0.12,6.021-0.482
	c3.102-0.62,5.651-2.045,5.651-2.045V25.914c0,0,0.161-0.552-0.62-0.575c-0.781-0.024-5.056,0-5.056,0s-0.541-0.05-0.528,0.575
	c0.013,0.571,0,22.31,0,22.31s-1.7,0.689-5.031,0.689c-2.2,0-3.771-0.508-4.757-1.354c-1.026-0.879-1.585-2.121-1.585-3.838
	c0-4.021,0-17.738,0-17.738s0.161-0.598-0.438-0.62C166.431,25.339,161.513,25.27,161.513,25.27z"/>
<path fill="#008080" d="M192.692,25.315c0,0-0.506-0.16-0.506,0.506c0,0.666,0,27.549,0,27.549s-0.068,0.62,0.689,0.62
	s5.124,0,5.124,0s0.552,0.046,0.552-0.598s0-27.572,0-27.572s0.114-0.482-0.46-0.482C197.517,25.339,192.692,25.315,192.692,25.315z
	"/>
<path fill="#008080" d="M217.094,24.719c-2.597,0-8.089,0.275-11.489,2.619c0,2.343,0,26.055,0,26.055s-0.138,0.574,0.438,0.574
	c0.574,0,5.238,0,5.238,0s0.482-0.069,0.482-0.689s0-22.355,0-22.355s1.839-0.644,5.239-0.644s4.411,1.333,5.078,1.839
	c0.665,0.505,1.516,1.837,1.516,4.042c0,1.118,0,17.072,0,17.072s-0.206,0.735,0.598,0.735s5.285,0,5.285,0s0.482,0.023,0.482-0.482
	c0-0.505,0-17.808,0-17.808s-0.208-4.204-2.114-6.571C225.939,26.741,223.297,24.719,217.094,24.719z"/>
<g>
	<g>
		<path fill="#008080" d="M260.968,35.438c0,0,0.063-4.191-2.861-7.238c-2.855-2.975-8.03-3.515-9.581-3.515
			s-5.721,0.207-8.306,2.206c-2.318,1.793-4.412,3.516-4.377,8.755c0.034,5.238,0,7.582,0,7.582s-0.242,4.929,2.378,7.479
			c2.619,2.551,4.445,3.171,6.514,3.585c2.068,0.413,6.121,0.565,8.926-0.448c2.861-1.034,7.342-3.791,7.308-9.995
			C260.933,37.643,260.968,35.438,260.968,35.438z M254.592,43.605c0,1.792-0.586,2.826-1.379,3.86s-3.032,1.447-4.894,1.447
			c-1.862,0-2.742-0.126-4.446-1.31c-1.689-1.172-1.724-2.688-1.724-4.205v-8.754c0-1.896,1.861-4.239,6.066-4.239
			c3.895,0,6.376,1.757,6.376,4.928V43.605z"/>
	</g>
</g>
<path fill="#008080" d="M277.494,26.993c-0.362,0-0.552,0.189-0.552,0.741c0,0.551,0,8.926,0,8.926h-9.082
	c0,0-0.517,0.018-0.517,0.518c0,0.499,0,4.911,0,4.911s-0.035,0.483,0.481,0.483c6.032,0,8.565,0,9.117,0
	c0,0.396,0.034,8.908,0.034,8.908s0,0.604,0.603,0.604c0.604,0,4.705,0,4.705,0s0.707,0.034,0.707-0.673c0-0.706,0-8.857,0-8.857
	h8.908c0,0,0.587,0.104,0.587-0.585c0-0.689,0-4.773,0-4.773s0.086-0.586-0.673-0.586c-0.771,0-8.978-0.018-8.978-0.018v-8.978
	c0,0,0.206-0.621-0.587-0.621C281.457,26.993,277.855,26.993,277.494,26.993z"/>
<path fill="#008080" d="M195.467,14.19c-1.275,0-2.274,0.465-2.826,1.12s-0.896,1.448-0.896,2.413c0,0.931,0.328,1.747,0.879,2.361
	c0.619,0.69,1.81,1.155,2.671,1.155c1.31,0,2.284-0.56,2.844-1.155c0.552-0.586,0.793-1.465,0.793-2.464
	c0-0.947-0.369-1.8-1.034-2.464C197.293,14.551,196.656,14.19,195.467,14.19z"/>
<g>
	<radialGradient id="XMLID_2_" cx="33.5" cy="33.5" r="33.5" gradientUnits="userSpaceOnUse">
		<stop  offset="0" style="stop-color:#F6F6F6"/>
		<stop  offset="1" style="stop-color:#E1E1E1"/>
	</radialGradient>
	<circle fill="url(#XMLID_2_)" cx="33.5" cy="33.5" r="33.5"/>
</g>
<g>
	<path fill="#008080" d="M37.073,37.114v17.807h-7.146V37.114H12.362v-7.067h17.564V12.08h7.146v17.968h17.565v7.067H37.073z"/>
</g>
</svg>
